HIERARCHY
ROOT Hips
{
	OFFSET 0.000000 0.000000 0.000000 
	CHANNELS 6 Xposition Yposition Zposition Yrotation Zrotation Xrotation 
	JOINT Lumbar
	{
		OFFSET 0.000000 0.000000 0.000000 
		CHANNELS 3 Zrotation Xrotation Yrotation
		JOINT Neck
		{
			OFFSET 0.000000 0.445665 0.000000 
			CHANNELS 3 Zrotation Xrotation Yrotation
			End Site
			{
				OFFSET 0.000000 0.227535 0.000000 
			}
		}
		JOINT RightShoulder
		{
			OFFSET 0.019635 0.377685 0.194865 
			CHANNELS 3 Zrotation Xrotation Yrotation
			JOINT RightElbow
			{
				OFFSET 0.000000 -0.243375 0.000000 
				CHANNELS 2 Zrotation Yrotation
				JOINT RightWrist
				{
					OFFSET 0.000000 -0.264825 0.000000 
					CHANNELS 2 Zrotation Xrotation
					End Site
					{
						OFFSET 0.006600 -0.176220 0.000990 
					}
				}
			}
		}
		JOINT LeftShoulder
		{
			OFFSET 0.019635 0.377685 -0.194865 
			CHANNELS 3 Zrotation Xrotation Yrotation
			JOINT LeftElbow
			{
				OFFSET 0.000000 -0.243375 0.000000 
				CHANNELS 2 Zrotation Yrotation
				JOINT LeftWrist
				{
					OFFSET 0.000000 -0.264825 0.000000 
					CHANNELS 2 Zrotation Xrotation
					End Site
					{
						OFFSET 0.006600 -0.176220 -0.000990 
					}
				}
			}
		}
	}
	JOINT RightHip
	{
		OFFSET 0.052140 -0.069960 0.075570 
		CHANNELS 3 Zrotation Xrotation Yrotation
		JOINT RightKnee
		{
			OFFSET 0.000000 -0.402270 0.000000 
			CHANNELS 1 Zrotation
			JOINT RightAnkle
			{
				OFFSET 0.000000 -0.404085 0.000000 
				CHANNELS 3 Zrotation Xrotation Yrotation
				End Site
				{
					OFFSET 0.204105 -0.089430 0.008415 
				}
			}
		}
	}
	JOINT LeftHip
	{
		OFFSET 0.052140 -0.069960 -0.075570 
		CHANNELS 3 Zrotation Xrotation Yrotation
		JOINT LeftKnee
		{
			OFFSET 0.000000 -0.402270 0.000000 
			CHANNELS 1 Zrotation
			JOINT LeftAnkle
			{
				OFFSET 0.000000 -0.404085 0.000000 
				CHANNELS 3 Zrotation Xrotation Yrotation
				End Site
				{
					OFFSET 0.204105 -0.089430 -0.008415 
				}
			}
		}
	}
}
MOTION
Frames: 16
Frame Time: 0.02
7e-05 -3e-05 0.00011 -898.7134 -39.98107 -3.41821 47.95773 2.9837 -2.82053 -11.02997 -2.65374 -0.1326 36.54269 -106.25121 64.17157 9.58197 86.3061 6.60933 -1.82255 12.48819 107.4216 -64.13017 9.41891 -82.40929 2.71327 2.63278 44.78999 -3.693 -4.32752 -21.50186 -6.97139 -3.20996 -2.33721 48.83336 9.07327 -0.4392 -26.87017 -7.40088 3.43315 2.47515
8e-05 -3e-05 6e-05 -898.71459 -39.98473 -3.41939 47.96103 2.98288 -2.81772 -11.01956 -2.65969 -0.13324 36.64432 -106.24333 64.17149 9.56718 86.3064 6.60061 -1.82119 12.47946 107.42264 -64.12991 9.41 -82.39981 2.67215 2.61321 44.7936 -3.69245 -4.34579 -21.49984 -6.97194 -3.21316 -2.33773 48.83812 9.07529 -0.44591 -26.87057 -7.40159 3.4344 2.47524
0.0001 -3e-05 1e-05 -898.71578 -39.98838 -3.42057 47.96432 2.98205 -2.81492 -11.00918 -2.66562 -0.13388 36.74574 -106.23552 64.17142 9.55245 86.30671 6.59189 -1.81983 12.47087 107.42374 -64.12958 9.40116 -82.39036 2.63107 2.59369 44.79721 -3.69186 -4.36392 -21.49782 -6.97249 -3.21637 -2.33826 48.84286 9.07731 -0.45259 -26.87097 -7.4023 3.43564 2.47533
0.00011 -3e-05 -3e-05 -898.71698 -39.99202 -3.42174 47.96761 2.98123 -2.81212 -10.99881 -2.67155 -0.13452 36.84706 -106.22767 64.17135 9.5377 86.30701 6.5832 -1.81847 12.46218 107.42479 -64.12935 9.39228 -82.38092 2.59007 2.57418 44.80081 -3.6913 -4.38212 -21.49581 -6.97304 -3.21956 -2.33878 48.8476 9.07932 -0.45929 -26.87137 -7.403 3.43688 2.47542
0.00012 -3e-05 -8e-05 -898.71817 -39.99567 -3.4229 47.97091 2.98042 -2.8093 -10.98842 -2.6775 -0.13516 36.94858 -106.21976 64.17127 9.52289 86.30731 6.57452 -1.81712 12.45329 107.42575 -64.1291 9.38333 -82.37144 2.54906 2.55464 44.80441 -3.69078 -4.4005 -21.49379 -6.97359 -3.22275 -2.3393 48.85235 9.08131 -0.46603 -26.87177 -7.40372 3.43814 2.47551
0.00013 -3e-05 -0.00012 -898.71936 -39.99932 -3.4241 47.97417 2.97956 -2.80655 -10.97807 -2.68339 -0.13579 37.04979 -106.21214 64.1712 9.50834 86.30762 6.56573 -1.81574 12.44535 107.42713 -64.12856 9.3747 -82.36204 2.50785 2.53514 44.80802 -3.69007 -4.4181 -21.49177 -6.97414 -3.22597 -2.33984 48.8571 9.08339 -0.47256 -26.87217 -7.40442 3.43935 2.47558
0.00015 -3e-05 -0.00017 -898.72056 -40.00297 -3.42523 47.97751 2.97879 -2.80367 -10.96764 -2.68939 -0.13644 37.15145 -106.20394 64.17112 9.49327 86.30791 6.55717 -1.81442 12.43551 107.4277 -64.1289 9.36543 -82.35251 2.4671 2.5156 44.81162 -3.68972 -4.43724 -21.48975 -6.97468 -3.22913 -2.34033 48.86183 9.0853 -0.47953 -26.87257 -7.40514 3.44064 2.47569
0.00016 -3e-05 -0.00022 -898.72175 -40.00661 -3.42643 47.98078 2.97794 -2.8009 -10.9573 -2.69529 -0.13707 37.25282 -106.19627 64.17105 9.4787 86.30822 6.54837 -1.81305 12.42744 107.42895 -64.12786 9.35674 -82.34308 2.42592 2.49606 44.81522 -3.68905 -4.45497 -21.48774 -6.97523 -3.23235 -2.34087 48.86657 9.08737 -0.48604 -26.87297 -7.40584 3.44186 2.47576
0.00017 -3e-05 -0.00026 -898.72291 -40.01027 -3.4277 47.98394 2.97701 -2.79832 -10.94699 -2.70107 -0.1377 37.35338 -106.18927 64.17097 9.46465 86.30853 6.53941 -1.81157 12.42146 107.43132 -64.12737 9.34882 -82.33382 2.38417 2.47666 44.81886 -3.68797 -4.47092 -21.48574 -6.97582 -3.23562 -2.34149 48.87136 9.08961 -0.49222 -26.87337 -7.40653 3.44301 2.47579
0.00018 -3e-05 -0.00031 -898.72419 -40.01393 -3.42853 47.98767 2.97656 -2.79478 -10.93626 -2.70754 -0.13839 37.45722 -106.1785 64.1709 9.44733 86.3088 6.53177 -1.8106 12.40323 107.42812 -64.13045 9.33665 -82.32375 2.34556 2.45686 44.82238 -3.6892 -4.49695 -21.48366 -6.97625 -3.23855 -2.34167 48.876 9.09079 -0.501 -26.87374 -7.40733 3.4446 2.4761
0.00019 -3e-05 -0.00035 -898.72526 -40.01753 -3.43028 47.99024 2.9751 -2.79317 -10.92659 -2.71257 -0.13895 37.555 -106.17562 64.17081 9.43709 86.30918 6.52108 -1.80862 12.41098 107.43608 -64.12171 9.33335 -82.3153 2.30042 2.43766 44.82609 -3.6856 -4.5018 -21.48174 -6.97699 -3.24221 -2.34278 48.88087 9.09428 -0.50384 -26.87419 -7.40787 3.44525 2.4758
0.00019 -3e-05 -0.0004 -898.72547 -40.02142 -3.43461 47.98934 2.97095 -2.79797 -10.91846 -2.71349 -0.13912 37.6293 -106.19532 64.17064 9.44565 86.30989 6.50337 -1.80334 12.49042 107.47951 -64.11246 9.35541 -82.312 2.23631 2.42181 44.83093 -3.66837 -4.44737 -21.48025 -6.97857 -3.24792 -2.34657 48.88712 9.10336 -0.49423 -26.87489 -7.40777 3.44331 2.47397
0.00017 -2e-05 -0.00045 -898.72551 -40.02518 -3.43981 47.98735 2.96576 -2.80455 -10.91167 -2.713 -0.13917 37.69894 -106.22285 64.17034 9.46195 86.31101 6.48178 -1.79726 12.59641 107.53307 -64.08336 9.3863 -82.31023 2.16583 2.40613 44.83587 -3.6464 -4.37197 -21.47893 -6.98043 -3.25435 -2.35128 48.89349 9.11483 -0.47819 -26.87565 -7.40741 3.44045 2.47152
0.00016 -2e-05 -0.0005 -898.72587 -40.0287 -3.44458 47.98604 2.96101 -2.80952 -10.90517 -2.71324 -0.13929 37.77497 -106.24609 64.17026 9.47445 86.3115 6.46185 -1.79175 12.6893 107.57904 -64.04516 9.41232 -82.30729 2.09897 2.38935 44.84036 -3.62683 -4.30682 -21.47751 -6.98214 -3.26043 -2.35551 48.89929 9.12579 -0.46223 -26.87634 -7.40713 3.43804 2.46926
0.00016 -1e-05 -0.00055 -898.72532 -40.03346 -3.44958 47.98392 2.95647 -2.8177 -10.89481 -2.71307 -0.13936 37.8323 -106.27213 64.16998 9.48602 86.31256 6.44472 -1.78487 12.7844 107.6383 -64.09196 9.44146 -82.30627 2.02908 2.37727 44.84648 -3.60609 -4.23825 -21.47614 -6.98399 -3.26664 -2.35999 48.9072 9.13464 -0.45716 -26.87722 -7.40697 3.43549 2.46731
0.00014 -1e-05 -0.00059 -898.72645 -40.03564 -3.45423 47.98327 2.95117 -2.81986 -10.89289 -2.71348 -0.13951 37.92831 -106.29458 64.16946 9.50407 86.31414 6.41787 -1.78126 12.88395 107.67142 -63.9463 9.46685 -82.3017 1.96391 2.35499 44.84931 -3.58681 -4.17225 -21.47478 -6.98558 -3.27273 -2.36417 48.91084 9.14806 -0.42927 -26.87774 -7.40651 3.43301 2.46465
